<?xml version="1.0" encoding="UTF-8" standalone="no"?>
				  <svg
				  xmlns:rdf="http://www.w3.org/1999/02/22-rdf-syntax-ns#"
				  xmlns:svg="http://www.w3.org/2000/svg"
				  xmlns="http://www.w3.org/2000/svg"
				  xmlns:xlink="http://www.w3.org/1999/xlink"
				  version="1.1"  width="500" height="333">
<path style="fill:#ffffff; stroke:none;" d="M0 0L0 2L0 333L2 333L500 333L500 331L500 0L498 0L0 0z"/>
<path style="fill:#07077d; stroke:none;" d="M155 7L154 8C149.702 19.9928 140.683 30.4756 138 43L140 43C143.914 39.1182 149.216 35.7389 152 31L154 31L154 33L154 53L149 53L150 54L157 55L158 54L158 31L160 31C162.96 35.9381 168.31 39.735 173 43L174 42L174 40C167.397 29.8947 161.641 18.1482 157 7L155 7z"/>
<path style="fill:#0000ff; stroke:none;" d="M155 13L155 15C151.033 19.7881 148.386 26.2701 146 32L147 33C153.722 28.8266 158.278 28.8266 165 33L166 32L157 13L155 13z"/>
<path style="fill:#0e0e20; stroke:none;" d="M173 49L172 50L173 55L171 55C166.623 52.6729 161.688 52.6148 157 54L157 56C162.333 74.0416 158 99.1546 158 118L158 252L156 252C150.585 233.68 155 208.137 155 189L155 54L153 54C143.219 54.0064 125.906 54.1017 119.603 63.1049C116.464 67.5895 118 75.7862 118 81L118 123L120 123C131.076 120.363 142.782 123.083 154 121L154 123C151.307 134.31 153 147.407 153 159L151 159L123 159L123 157L123 127L125 127C133.614 127 143.715 128.449 152 126L151 125L118 126L118 128L118 160L120 160L154 160L154 162L154 165L152 165C142.283 160.922 128.526 164.954 118 163L118 165L118 232C118 238.496 115.557 251.377 119.603 256.786C125.911 265.218 145.458 265.803 155 266L155 268L156 274L158 274C158.9 270.959 158.992 268.169 159 265L161 265C171.148 265 188.254 265.508 195.486 256.786C201.497 249.537 198 230.967 198 222L198 128L196 128C184.223 126.006 172.024 125.1 160 125L160 123L198 125L198 123L198 81C198 75.6701 199.45 67.7234 196.258 63.108C192.246 57.3085 182.472 55.8358 176 55L176 53L177 52L179 54L180 53L181 52C179.007 48.9769 176.461 49.2461 173 49z"/>
<path style="fill:#0606e8; stroke:none;" d="M155 55L155 57C155 76.4338 150.502 102.399 156 121L157 120L157 55L155 55z"/>
<path style="fill:#0f0f90; stroke:none;" d="M157 56L157 121L156 120C155.015 122.332 155.019 124.457 155 127L156 126C158.946 135.968 157 148.623 157 159L156 158C152.694 165.879 155 178.466 155 187L155 252L157 252C161.807 240.544 158 220.468 158 208L158 105C158 91.2234 162.306 68.6452 157 56z"/>
<path style="fill:#999999; stroke:none;" d="M152 76L152 74L152 57L150 57C144.48 57.0036 123.636 57.8665 123.636 66.0394C123.636 75.6883 145.663 76 152 76z"/>
<path style="fill:#9a9a9a; stroke:none;" d="M160 57L160 59C161.277 60.915 161.277 60.085 160 62L161 63L163 63C169.729 67.7131 183.218 64.9835 191 64L191 62C185.752 60.3221 180.469 58.7364 175 58L175 61L174 63L172 63L171 62L171 60L172 57L170 57L160 57z"/>
<path style="fill:#c5c5c5; stroke:none;" d="M117 64L117 121L114 121L113 122L115 122L118 122L118 120L118 82C118 76.3808 119.189 69.2165 117 64z"/>
<path style="fill:#999999; stroke:none;" d="M160 69L160 71L160 76L162 76C172.359 76 183.275 75.1389 192 69L191 68C180.297 66.6474 170.449 66.6711 160 69M123 73L123 75L123 120L125 120C133.285 117.551 143.386 119 152 119L152 117L152 79L150 79C140.476 78.2484 132.073 75.5887 123 73M161 119L163 119C173.064 119 183.024 119.739 193 121L193 119L193 73C185.587 75.0235 178.676 77.4691 171 78.5718C168.396 78.9459 163.85 78.3019 162.028 80.6034C160.088 83.0524 161 88.0895 161 91L161 119z"/>
<path style="fill:#444545; stroke:none;" d="M152 79L152 119L150 119C141.17 119 131.626 117.946 123 120L124 121L153 120L153 118C153 106.828 156.311 89.274 152 79z"/>
<path style="fill:#3c4242; stroke:none;" d="M159 79L159 81L159 122L161 122C170.289 119.254 182.596 121.254 192 123L193 122L192 121C182.078 118.638 171.162 119 161 119L161 117C161 105.452 158.723 91.0852 162 80L161 79L159 79z"/>
<path style="fill:#820606; stroke:none;" d="M154 165L154 163L154 160L152 160C126.376 160 102.031 159.261 77 153.346C72.2198 152.216 54.6037 149.247 55.6312 142.025C56.5886 135.296 72.727 133.081 78 132.004C102.983 126.902 128.573 125 154 125L154 123L154 121L152 121C126.585 127.051 98.9604 120.922 73 127.756C65.7675 129.66 50.699 132.862 49.4267 142C48.0037 152.22 65.094 155.796 72 157.707C99.3364 165.27 126.805 159.951 154 165z"/>
<path style="fill:#e70404; stroke:none;" d="M160 123L160 125L197 127L196 126C187.17 120.711 170.127 123 160 123z"/>
<path style="fill:#7f0303; stroke:none;" d="M196 125L197 126L196 127L192 127L193 128C204.605 128.948 218.184 131.357 229 135.757C235.873 138.553 241.163 143.121 233 148L233 150L235 153L237 153C239.356 150.348 243.382 147.647 243.833 143.907C244.582 137.676 238.883 134.419 234 132.288C223.49 127.701 207.476 122.76 196 125z"/>
<path style="fill:#979797; stroke:none;" d="M152 125L151 127L123 127L123 129L123 159L125 159L153 159L153 157C153 147.661 155.611 133.606 152 125z"/>
<path style="fill:#0505e2; stroke:none;" d="M156 126L155 127C155 137.084 153.136 149.312 156 159L157 158C157 148.661 159.611 134.606 156 126z"/>
<path style="fill:#c2c2c2; stroke:none;" d="M108 127L109 128L117 128L117 130L117 158L114 158L113 159L115 159L118 159L118 157L118 127L116 127L108 127z"/>
<path style="fill:#595b5b; stroke:none;" d="M159 127L159 129L159 159L161 159L174 159L173 157L170 155L171 154L172 155L176 154L175 153L171 152L172 151L174 151C179.752 153.787 186.738 154.786 193 156L193 154C193 148.382 195.582 134.204 191.972 129.742C189.891 127.17 184.886 128.032 182 127.996C174.326 127.902 166.721 127 159 127z"/>
<path style="fill:#ffffff; stroke:none;" d="M117 158L117 156L117 128L115 128C99.2737 128 83.0978 129.678 68 134.34C64.1016 135.544 54.1642 137.051 54.9213 142.975C55.6274 148.499 64.7568 150.21 69 151.421C84.7525 155.918 100.647 158 117 158z"/>
<path style="fill:#999999; stroke:none;" d="M161 129L161 131L161 157L163 157L169 157L169 155C169.412 146.055 186.305 152.896 192 154L192 152L192 130L190 130L161 129z"/>
<path style="fill:#ff0000; stroke:none;" d="M173 154L176 159L175 160L173 160C168.739 161.259 164.423 161 160 161L160 163L176 163L176 165L175 169L177 169L195 161L195 159C188.865 155.808 179.906 154.057 173 154z"/>
<path style="fill:#946666; stroke:none;" d="M103 158L104 159L118 160L117 159L103 158z"/>
<path style="fill:#40403c; stroke:none;" d="M159 160L159 162L159 254L160 253C163.105 245.6 161 234.007 161 226L161 167L163 167L170 167L170 169L170 174L172 174C179.487 172.67 186.339 168.505 193 165L192 164L190 164L175 172L174 171L175 170L177 170C176.35 168.7 176.853 169 175 169L176 163L174 163L160 163L160 161L173 161L172 160L159 160z"/>
<path style="fill:#cccccc; stroke:none;" d="M198 160L198 253L199 252L199 188C199 179.729 201.206 167.639 198 160z"/>
<path style="fill:#bfbfbf; stroke:none;" d="M109 164L110 165L117 165L117 167L117 256L118 255L118 164L116 164L109 164z"/>
<path style="fill:#494946; stroke:none;" d="M123 165L123 167L152 167L152 169L152 224C152 233.749 150.733 244.479 153 254L154 253L154 251C151.386 242.158 153 231.195 153 222L153 166L151 166L123 165z"/>
<path style="fill:#999999; stroke:none;" d="M170 174L170 172L170 167L168 167L161 167L161 169L159 262L161 262C169.487 262 185.232 263.031 191.142 255.468C195.376 250.049 193 237.526 193 231L193 165C185.267 167.814 178.37 173.144 170 174M123 167L123 169L123 232C123 238.245 120.658 250.591 124.603 255.775C129.71 262.487 146.272 262.84 154 263L154 261L152 167L150 167L123 167z"/>
<path style="fill:#646495; stroke:none;" d="M154 266L154 301L155 300C155 290.137 157.811 275.083 154 266z"/>
<path style="fill:#0d0d7d; stroke:none;" d="M155 273L155 301L157 301C159.4 295.28 160.275 276.804 155 273z"/>
<path style="fill:#575795; stroke:none;" d="M158 273L158 301L156 301L155 302L157 302L159 302L159 300C159 291.975 161.109 280.409 158 273z"/>
</svg>
