<?xml version="1.0" encoding="UTF-8" standalone="no"?>
				  <svg
				  xmlns:rdf="http://www.w3.org/1999/02/22-rdf-syntax-ns#"
				  xmlns:svg="http://www.w3.org/2000/svg"
				  xmlns="http://www.w3.org/2000/svg"
				  xmlns:xlink="http://www.w3.org/1999/xlink"
				  version="1.1"  width="500" height="333">
<path style="fill:#ffffff; stroke:none;" d="M0 0L0 2L0 333L2 333L500 333L500 331L500 0L498 0L0 0z"/>
<path style="fill:#08087d; stroke:none;" d="M214 28L214 31C206.854 38.0703 199.833 53.3521 197 63L199 63C203.091 60.0359 208.424 56.3455 211 52L213 52L213 54L213 198L214 197C215.45 195.392 216.051 194.936 218 194C217.35 192.7 217.853 193 216 193L218 53L220 53C223.55 57.3886 228.3 60.8915 233 64L234 63L217 28L214 28z"/>
<path style="fill:#0000ff; stroke:none;" d="M215 33L214 34L205 53L206 54C213.466 49.3038 217.411 49.8597 225 54L226 53C223.245 46.3836 220.121 38.067 215 33z"/>
<path style="fill:#b7b7e8; stroke:none;" d="M211 52L211 54C214.606 66.2008 212 82.2817 212 95L213 94L213 52L211 52z"/>
<path style="fill:#7f0404; stroke:none;" d="M212 140L212 138L212 136L210 136C187.605 136 164.716 134.362 143 128.424C138.079 127.078 124.584 125.656 123.631 118.971C122.691 112.376 138.527 109.184 143 108.211C162.813 103.904 191.044 96.1014 211 102L212 101L212 96L210 96C186.275 96 161.003 97.6985 138 103.92C131.063 105.796 116.557 109.529 117.207 119C117.843 128.273 131.976 130.918 139 132.909C162.938 139.695 187.299 140 212 140z"/>
<path style="fill:#810808; stroke:none;" d="M218 96L218 98L218 101L220 101C243.18 101.478 268.635 102.897 291 109.569C295.1 110.793 303.104 112.936 305.079 117.194C305.996 119.172 298.366 127.636 303.978 127.123C309.853 126.585 313.259 118.67 310.257 114.043C306.833 108.766 299.62 106.786 294 104.862C270.601 96.8485 242.504 96 218 96z"/>
<path style="fill:#936c6c; stroke:none;" d="M183 101L184 102L202 102L201 101L183 101z"/>
<path style="fill:#ffffff; stroke:none;" d="M212 135L212 133C212 127.022 215.238 105.859 210.397 102.028C206.797 99.1789 198.27 101.979 194 101.999C176.461 102.084 158.104 104.473 141 108.428C136.249 109.527 123.705 111.977 122.921 118.028C121.971 125.364 138.357 127.436 143 128.706C165.209 134.78 189.157 135 212 135z"/>
<path style="fill:#956868; stroke:none;" d="M173 102L174 103L183 103L182 102L173 102z"/>
<path style="fill:#696995; stroke:none;" d="M212 102L212 135L213 134C213 124.661 215.611 110.606 212 102z"/>
<path style="fill:#4a4a95; stroke:none;" d="M216 102L216 135L217 134C217 124.661 219.611 110.606 216 102z"/>
<path style="fill:#7d0c0c; stroke:none;" d="M236 127L236 129C238.832 131.049 240.52 132.834 242 136L240 136C232.567 136 224.155 137.115 217 135L216 136L216 141L218 141C225.725 139.161 234.097 140 242 140L242 142L238 147L239 148L241 148C249.085 143.281 257.976 138.58 267 136L267 134L266 133C255.972 131.526 246.164 127.443 236 127z"/>
<path style="fill:#fe0000; stroke:none;" d="M244 131L244 133L245 141L247 141L260 136L260 134L244 131z"/>
<path style="fill:#936b6b; stroke:none;" d="M174 134L175 135L186 135L185 134L174 134z"/>
<path style="fill:#956b6b; stroke:none;" d="M186 135L187 136L212 136L211 135L186 135z"/>
<path style="fill:#956060; stroke:none;" d="M217 135L218 136L242 136L241 135L217 135z"/>
<path style="fill:#956c6c; stroke:none;" d="M202 140L203 141L212 141L211 140L202 140z"/>
<path style="fill:#515195; stroke:none;" d="M212 141L212 196L213 195L213 159C213 153.381 214.189 146.217 212 141z"/>
<path style="fill:#696995; stroke:none;" d="M216 141L216 191L217 190C217 176.212 221.309 153.652 216 141z"/>
<path style="fill:#060606; stroke:none;" d="M215 194L215 196L215 233C231.082 226.269 245.808 215.39 261 206.861C280.091 196.143 301.345 186.33 318.996 173.366C330.599 164.843 330.217 147.031 315 142.638C304.411 139.582 293.613 148.82 285 153.719C262.102 166.745 239.229 183.811 215 194z"/>
<path style="fill:#999999; stroke:none;" d="M218 227L220 227C247.74 210.298 276.171 194.765 304 178.201C312.905 172.9 330.679 165.471 322.721 152.044C312.961 135.573 291.581 153.252 281 159.281C266.595 167.488 252.41 176.084 238 184.281C232.885 187.191 223.289 190.502 220.028 195.529C216.053 201.657 218.321 219.514 218 227z"/>
<path style="fill:#060606; stroke:none;" d="M322 184L322 189L319 189C294.959 206.466 266.77 219.654 241 234.427C201.997 256.788 163.78 281.048 124 302L124 300C118.678 301.511 113.521 306.67 112 312L114 312L127 309L127 307L126 305L127 304C142.351 298.412 156.887 287.615 171 279.424C199.953 262.621 228.898 245.827 258 229.281C273.377 220.538 288.802 211.85 304 202.799C310.591 198.874 318.766 195.666 324 190L325 191L325 193L328 193L328 191C331.827 188.326 335.202 185.764 336 181L322 184z"/>
<path style="fill:#0909dc; stroke:none;" d="M214 195L214 198C208.682 205.785 211.323 225.969 213 235L211 235L210 236L212 236L212 251L214 251C217.44 239.361 215 224.126 215 212C215 206.65 216.085 199.969 214 195z"/>
<path style="fill:#060606; stroke:none;" d="M91 296L91 298L90 301L92 301C96.4855 297.97 101.235 298.417 106 296.176C115.976 291.484 125.465 285.11 135 279.576C159.904 265.122 186.128 245.171 213 235L213 233C210.209 221.275 212.063 207.868 213 196C196.604 201.968 181.192 213.974 166 222.576C140.445 237.046 113.424 250.665 89.0046 266.965C78.8272 273.759 78.432 291.634 91 296z"/>
<path style="fill:#999999; stroke:none;" d="M101 263L101 265C111.732 269.827 115.132 275.801 114 287L116 287C136.587 272.044 160.895 260.634 183 248.001C190.209 243.881 204.201 239.279 208.972 232.366C213.426 225.912 211 208.718 211 201L209 201C172.548 220.401 138.403 245.537 101 263z"/>
<path style="fill:#555595; stroke:none;" d="M215 233L215 249L217 249L218 248L216 248C216 243.183 216.876 237.471 215 233z"/>
<path style="fill:#686895; stroke:none;" d="M211 236L211 252L212 251C212 246.183 212.876 240.471 211 236z"/>
<path style="fill:#080d0f; stroke:none;" d="M230 247L230 249C230.747 254.029 228.414 258.926 228 264L230 264C233.621 261.585 234.551 251.481 235 247L233 247L230 247z"/>
<path style="fill:#1a1a7d; stroke:none;" d="M209 256C209.65 257.3 209.147 257 211 257C211 259.481 209.524 273.934 213.83 273.079C217.877 272.274 216 257.217 216 254L214 254L209 256z"/>
<path style="fill:#424242; stroke:none;" d="M94 267L95 268C106.718 268.098 112.755 275.398 110 287L108 287C105.443 282.704 100.797 281.432 96 281L96 283C99.2185 286.269 102.412 288.387 107 289L107 291L108 292L109 291L115 288L114 287C116.44 274.614 107.893 260.993 94 267z"/>
<path style="fill:#989898; stroke:none;" d="M89 293L91 293L92 292L92 287L94 287C97.2404 287.925 98.4953 288.988 100 292L98 292L96 291L95 292L95 295L97 295C100.74 294.752 103.601 293.507 107 292L107 290L106 289L104 289C101.41 286.966 99.0312 285.276 96 284L96 282L97 281L99 281C102.39 282.738 105.441 284.153 108 287L110 287C116.911 263.612 81.5993 262.157 84.1929 283C84.673 286.858 86.9717 289.817 89 293z"/>
</svg>
