<?xml version="1.0" encoding="UTF-8" standalone="no"?>
				  <svg
				  xmlns:rdf="http://www.w3.org/1999/02/22-rdf-syntax-ns#"
				  xmlns:svg="http://www.w3.org/2000/svg"
				  xmlns="http://www.w3.org/2000/svg"
				  xmlns:xlink="http://www.w3.org/1999/xlink"
				  version="1.1"  width="500" height="334">
<path style="fill:#ffffff; stroke:none;" d="M0 0L0 2L0 332L2 332L500 332L500 330L500 0L498 0L0 0z"/>
<path style="fill:#0f0f7f; stroke:none;" d="M344 28L344 30C337.141 38.278 329.983 52.6667 327 63L329 63C333.646 59.7658 337.909 55.9154 342 52L343 53C343 94.0087 343.891 136.09 341.09 177C340.237 189.452 342.905 202.798 340 215L342 215L342 218L344 218L345 217C345 178.013 347 139.796 347 101C347 86.145 350.394 67.2606 347 53L349 53C353.091 56.9154 357.354 60.7658 362 64L363 63L363 61C356.893 50.5374 351.596 39.2026 347 28L344 28z"/>
<path style="fill:#0000ff; stroke:none;" d="M345 33L344 34L334 54L335 55C342.133 50.2267 346.427 49.5709 354 54L355 53L355 51C352.167 45.0225 349.711 37.6978 345 33z"/>
<path style="fill:#890808; stroke:none;" d="M341 180L341 178L341 175C317.743 172.061 293.91 173.84 271 167.575C265.931 166.189 251.674 164.687 250.631 157.939C249.673 151.741 266.79 148.233 271 147.236C293.987 141.795 318.439 140 342 140L342 138L342 135L340 135C315.529 135 288.724 136.172 265 142.745C258.009 144.682 243.553 148.472 244.207 158C244.839 167.223 258.947 170.297 266 172.29C289.918 179.049 316.291 180 341 180z"/>
<path style="fill:#840505; stroke:none;" d="M345 135L345 137L345 140L347 140C369.755 140.002 395.172 141.891 417 148.66C420.707 149.809 433.102 152.435 432.373 157.939C432.07 160.23 429.357 161.18 428.751 163.316C428.286 164.953 429.474 166.292 431.149 166.094C437.157 165.384 440.591 157.902 437.397 153.019C434.112 147.998 427.408 145.829 422 144.004C398.34 136.02 369.769 135 345 135z"/>
<path style="fill:#ffffff; stroke:none;" d="M342 140L340 140C316.789 140 292.641 141.877 270 147.236C265.642 148.268 249.033 151.548 249.921 157.939C250.854 164.65 264.041 165.891 269 167.29C285.925 172.067 305.461 173.915 323 173.999C326.931 174.018 337.291 176.177 340.397 173.933C342.781 172.21 341.999 167.517 342 165L342 140z"/>
<path style="fill:#910b0b; stroke:none;" d="M363 165L363 167L369 173L368 174L345 174L345 176L345 180L347 180L370 179L370 181C367.819 182.896 366.931 184.259 366 187L368 187C376.971 182.942 386.457 178.862 395 174L395 172C384.209 171.141 373.52 167.412 363 165z"/>
<path style="fill:#616194; stroke:none;" d="M345 180L345 215L347 215C344.389 204.034 349.305 190.258 345 180z"/>
<path style="fill:#000000; stroke:none;" d="M174 195L174 197C175.41 203.589 171.962 210.454 171 217L173 217C176.123 213.709 177 209.362 178 205L180 205L181 206L181 208C176.849 215.823 184.824 219.857 187 211L185 211L184 213L183 212L184 211C184.535 206.341 184.736 202.443 179 203L178 202L179 201L180 195L178 195L174 195z"/>
<path style="fill:#030303; stroke:none;" d="M64 242L64 244C99.1093 255.955 132.5 276.497 166 292.363C176.989 297.568 192.895 309.49 205 310.4C209.923 310.771 215.382 307.271 220 305.86C235.202 301.213 249.994 294.947 265 289.695C301.065 277.073 336.937 263.926 373 251.305C388.417 245.909 404.016 238.43 420 235L420 233C396.195 229.989 372.016 222.003 348 222L348 220C354.659 213.567 347.135 210.263 345 218L343 218L339 212L337 212C335.033 214.666 335.34 216.065 338 218L338 220L336 220C323.244 212.357 301.544 213.399 287 210.69C279.865 209.361 271.243 206.239 264 206.584C243.353 207.567 221.334 214.079 201 217.905C156.066 226.359 109.439 237.476 64 242z"/>
<path style="fill:#aaaaaa; stroke:none;" d="M74 243L74 245C106.341 258.465 137.169 275.693 169 290.309C179.559 295.157 193.27 305.903 205 306.693C210.948 307.093 218.802 302.805 224.285 300.634C233.995 296.792 244.184 293.284 254.09 289.96C287.915 278.608 321.348 265.939 355 254.304C371.506 248.597 387.863 240.537 405 237L405 235C400.744 232.088 394.961 232.54 390 231.49C377.361 228.814 363.868 226.016 351 225L351 227L350 228L348 228C343.014 222.092 338.266 230.494 335 225L338 225L340 222L339 221L338 222C313.065 221.794 287.941 208.977 263 210.104C243.164 211.001 222.502 217.106 203 220.739C160.329 228.688 117.054 237.554 74 243z"/>
<path style="fill:#828282; stroke:none;" d="M65 241L66 242L69 242L68 241L65 241z"/>
<path style="fill:#575795; stroke:none;" d="M340 262C342.763 273.607 341 287.101 341 299L343 299L346 299L346 297L346 261L340 262z"/>
<path style="fill:#050505; stroke:none;" d="M103 282L104 283L106 283L106 280L108 280L108 282C102.902 290.513 112.946 295.828 119.697 290.394C123.665 287.199 125.562 278.852 120 277L120 279L118 290L116 290L116 288C116.566 284.146 117.805 280.863 117 277L115 277C113.372 281.254 112.209 285.436 112 290L110 290C109.301 285.297 110.459 270.077 103 282z"/>
<path style="fill:#000000; stroke:none;" d="M0 332L0 334L500 334L500 332L0 332z"/>
</svg>
