<?xml version="1.0" encoding="UTF-8" standalone="no"?>
				  <svg
				  xmlns:rdf="http://www.w3.org/1999/02/22-rdf-syntax-ns#"
				  xmlns:svg="http://www.w3.org/2000/svg"
				  xmlns="http://www.w3.org/2000/svg"
				  xmlns:xlink="http://www.w3.org/1999/xlink"
				  version="1.1"  width="500" height="333">
<path style="fill:#ffffff; stroke:none;" d="M0 0L0 2L0 333L2 333L500 333L500 331L500 0L498 0L0 0z"/>
<path style="fill:#14147d; stroke:none;" d="M195 37L194 38L177 72L178 73C182.945 69.8111 187.55 65.8526 192 62L193 63C193 87.4889 194.456 112.716 192.91 137C191.688 156.195 188.515 180.161 193 199C194.3 198.35 194 198.853 194 197L196 198L198 62L200 62C203.443 66.27 208.014 70.6282 213 73L214 72L197 37L195 37z"/>
<path style="fill:#0000ff; stroke:none;" d="M195 43L194 44C191.233 50.6467 186.364 56.9279 185 64C192.988 60.1152 196.793 59.0769 205 63L206 62C203.344 55.6205 200.416 49.002 197 43L195 43z"/>
<path style="fill:#292929; stroke:none;" d="M275 96L276 97L279 98L279 96C277.191 95.4257 276.931 95.5347 275 96z"/>
<path style="fill:#7f0404; stroke:none;" d="M192 168L192 166L192 162L190 162C167.151 162 144.329 160.678 122 155.576C116.823 154.393 102.937 152.243 101.542 145.907C99.9002 138.45 116.333 136.263 121 135.13C137.714 131.07 155.832 129.028 173 129C179.06 128.99 185.115 127.264 191 129L192 128L192 123L190 123C165.12 123 140.213 124.827 116 130.769C108.849 132.523 93.8765 136.263 94.5332 145.996C95.1386 154.969 109.989 158.676 117 160.346C141.403 166.158 166.973 168 192 168z"/>
<path style="fill:#8f0d0d; stroke:none;" d="M198 123L198 125L198 129C216.411 124.997 243.862 130.346 262 134.873C267.981 136.366 277.735 137.616 281.534 143.129C284.071 146.81 278.636 150.75 279 155L281 155C298.038 145.713 283.391 135.944 271.83 131.82C249.144 123.729 221.821 123 198 123z"/>
<path style="fill:#ffffff; stroke:none;" d="M192 162L192 160C192 154.108 196.029 132.848 191.397 129.179C187.335 125.962 178.707 128.94 174 128.996C156.055 129.21 137.497 130.88 120 135.13C114.638 136.432 102.721 137.604 101.006 144.005C98.9814 151.563 116.146 154.466 121 155.576C144.353 160.912 168.117 162 192 162z"/>
<path style="fill:#930707; stroke:none;" d="M214 153L214 155L220 161L219 162L196 162L196 164L196 197L198 197C195.804 187.775 197 177.445 197 168L199 168L220 167L220 169L215 173L215 175L217 175C226.15 171.815 235.33 163.702 245 163L245 161C236.809 156.061 223.382 155.146 214 153z"/>
<path style="fill:#000000; stroke:none;" d="M123 182L123 184L125 184L125 186C122.308 191.055 120.839 198.322 120 204L122 204L124 204L124 201C125.873 197.953 126.907 194.41 128 191L130 191L130 193L129 204L131 204C134.464 203.022 135.482 201.526 136 198L134 198C133.014 199.479 133 199.203 133 201L131 201L131 199C134.634 195.117 134.469 189.055 128 190L127 189C129.11 184.521 128.771 180.686 123 182z"/>
<path style="fill:#010101; stroke:none;" d="M196 197L196 199L198 199C229.769 197.632 260.564 204.6 292 210.626C313.827 214.809 336.128 216.937 358 221L357 222C308.118 237.905 259.484 255.645 211.285 273.376C197.899 278.3 184.526 283.459 171 288C165.999 289.679 159.358 293.663 154 293.037C142.43 291.685 128.459 281.319 118 276.258C98.7473 266.943 79.1573 258.263 60 248.752C47.8912 242.741 34.9812 234.74 22 231L23 230C65.8185 226.616 109.757 215.13 152 207.261C161.956 205.406 172.008 203.879 182 202.246C186.46 201.517 191.414 201.783 193 197L191 197C146.263 208.574 99.2046 212.1 54 221.64C40.5846 224.471 26.0107 224.596 13 229L13 231L16 231C27.3228 238.617 41.5946 243.755 54 249.475C74.1261 258.753 94.0763 268.548 114 278.258C124.714 283.479 143.07 296.937 155 296.707C169.941 296.419 187.816 285.1 202 280.46C242.314 267.271 281.784 251.559 322 238.066C337.241 232.952 353.081 224.384 369 222L369 220C334.928 209.835 296.97 208.204 262 201.69C240.466 197.678 217.385 190.221 196 197z"/>
<path style="fill:#0f0ff5; stroke:none;" d="M194 197L194 199C189.808 204.534 191.082 219.51 193 226L195 226C197 219.235 198.358 202.752 194 197z"/>
<path style="fill:#aaaaaa; stroke:none;" d="M199 199L199 201C199 210.17 199.222 217.353 202 226L200 226C196.799 229.548 197.909 231.932 202 234L202 236L198 238L198 236C194.191 233.316 191.394 233.073 190 238L188 238L186 237L186 235L190 232L190 230C188.312 227.328 186.824 225.05 186 222L188 222C190.398 216.285 189 208.169 189 202L187 202C172.361 202.121 157.38 206.391 143 208.916C103.236 215.899 62.2191 226.821 22 230L23 231C52.0552 247.958 84.4295 261.272 115 275.309C126.405 280.545 141.47 292.237 154 293.425C159.459 293.943 165.919 290.038 171 288.333C184.831 283.693 198.444 278.297 212.17 273.376C260.587 256.014 309.042 237.93 358 222L357 221C336.57 214.905 313.926 214.637 293 210.626C262.631 204.805 229.773 195.026 199 199z"/>
<path style="fill:#595953; stroke:none;" d="M196 199L196 201L196 225C197.3 224.35 197 224.853 197 223L201 223L201 221C196.999 215.719 199 205.443 199 199L196 199z"/>
<path style="fill:#515152; stroke:none;" d="M186 201L187 202L189 202L189 204L189 222L187 222C185.892 225.53 188.127 228.022 190 231L191 230L191 228L187 224L188 223L190 223C190.65 224.3 190.147 224 192 224L192 222L192 201L190 201L186 201z"/>
<path style="fill:#040405; stroke:none;" d="M187 223L187 225C190.941 230.069 187.836 231.765 186 237L187 238L190 238L190 236C193.698 233.58 195.398 234.653 198 238L200 238C201.267 236.457 201.489 235.952 202 234L200 234C198.106 230.048 198.086 228.273 202 226L202 224L201 223L199 223C194.396 224.84 191.72 223.854 187 223z"/>
<path style="fill:#040404; stroke:none;" d="M53 270L55 270L56 266L57 267L57 269C53.1063 277.15 61.6592 282.755 68.6559 277.383C72.4845 274.443 72.8104 268.405 73 264L71 264L69 264L69 266C68.9644 269.984 68.3648 273.255 67 277L65 277L65 275L67 264L65 264C62.0573 267.594 61.5857 272.464 61 277L59 277L59 275C59.3667 272.504 61.0333 268.769 60.2122 266.319C58.3279 260.695 53.4383 267.252 53 270z"/>
<path style="fill:#08087f; stroke:none;" d="M191 284C192.623 290.818 192 298.029 192 305L194 305C196.603 298.798 195 289.702 195 283L191 284z"/>
<path style="fill:#6f6f95; stroke:none;" d="M195 283L195 305L193 305C191.138 298.699 192 291.542 192 285L191 286L191 306L193 306L196 306L196 304C196 297.564 197.5 288.959 195 283z"/>
</svg>
