<?xml version="1.0" encoding="UTF-8" standalone="no"?>
				  <svg
				  xmlns:rdf="http://www.w3.org/1999/02/22-rdf-syntax-ns#"
				  xmlns:svg="http://www.w3.org/2000/svg"
				  xmlns="http://www.w3.org/2000/svg"
				  xmlns:xlink="http://www.w3.org/1999/xlink"
				  version="1.1"  width="500" height="333">
<path style="fill:#ffffff; stroke:none;" d="M0 0L0 2L0 333L2 333L500 333L500 331L500 0L498 0L0 0z"/>
<path style="fill:#07077d; stroke:none;" d="M141 10L140 11C135.761 22.8282 126.364 33.5989 124 46L126 46C129.964 42.1183 135.366 38.8878 138 34L140 34L140 36C140 44.9088 141.532 55.4341 139 64L140 65L142 65L144 65L144 63C143.003 53.9347 144 44.1692 144 35L146 35C149.426 38.92 153.663 42.132 158 45L159 44L159 42C153.081 31.8586 147.513 20.8407 143 10L141 10z"/>
<path style="fill:#0000ff; stroke:none;" d="M141 16L140 17L132 35L133 36C139.725 31.8248 144.208 32.0275 151 36L152 35L143 16L141 16z"/>
<path style="fill:#8f8fa5; stroke:none;" d="M159 43L159 45L158 46L160 46L159 43z"/>
<path style="fill:#000000; stroke:none;" d="M168 47L168 49L168 59L167 60C159.026 60 150.893 59.0678 143 60L143 62C147.969 64.0851 154.65 63 160 63C170.846 63 182.284 64.2656 193 63L193 61C187.141 57.5132 176.775 60 170 60L170 58C171.535 55.1144 171.858 52.2519 172 49L174 49C174.98 50.7833 174.908 50.5943 177 51L177 49C174.743 45.5189 171.731 45.9095 168 47z"/>
<path style="fill:#060606; stroke:none;" d="M90 152L92 152C125.554 144.011 161.147 151.996 195 152L195 150L195 98C195 92.2096 197.121 82.0626 194.067 77.0432C190.243 70.7578 181.591 69.0122 175 67.375C156.606 62.8061 131.544 62.7351 113 66.669C106.277 68.0951 95.8886 70.0549 91.7423 76.1049C88.0574 81.4818 90 91.7635 90 98L90 152z"/>
<path style="fill:#999da3; stroke:none;" d="M137 67.4244C125.783 68.8964 114.957 69.3389 104 72.4645C100.529 73.4547 93.9469 75.1882 94.466 79.9861C95.1546 86.3493 106.345 87.2124 111 88.4159C128.77 93.0103 150.885 92.5344 169 89.7948C173.295 89.1452 195.567 85.1428 190.338 77.3287C187.517 73.1123 181.552 72.8385 177.17 71.5841C165.181 68.1524 149.439 65.792 137 67.4244z"/>
<path style="fill:#000000; stroke:none;" d="M121 71.5139C117.237 72.266 99.1759 73.8688 102.176 80.7878C104.457 86.0482 116.18 86.7493 121 86.9606C138.172 87.7137 160.805 91.2331 176.981 83.8256C187.122 79.1814 175.513 73.9418 170 73.1312C154.736 70.8865 136.363 68.4435 121 71.5139z"/>
<path style="fill:#ffffff; stroke:none;" d="M105 78L105 80C113.975 85.4818 129.713 84.9716 140 85L140 83L140 74L138 74C126.704 74 116.057 75.8558 105 78z"/>
<path style="fill:#07077d; stroke:none;" d="M140 74L140 76L140 85L142 85L144 85L144 83L144 74L142 74L140 74z"/>
<path style="fill:#ffffff; stroke:none;" d="M144 74L144 76L144 85L146 85C156.752 84.5383 169.002 84.3015 179 80L179 78L176 78C166.875 73.6148 153.943 74 144 74z"/>
<path style="fill:#cacaca; stroke:none;" d="M89 78L89 150L86 150L85 151L87 151L90 151L90 149L90 100C90 93.3141 91.5991 84.1939 89 78z"/>
<path style="fill:#c0c0c0; stroke:none;" d="M195 81L195 150L196 149L196 102C196 95.5797 197.497 86.951 195 81z"/>
<path style="fill:#999da3; stroke:none;" d="M93 85L93 87C98.2516 104.767 94 129.442 94 148L96 148C109.318 144.062 126.156 145 140 145L140 143L140 94L138 94C121.19 94 108.604 88.901 93 85z"/>
<path style="fill:#484a5e; stroke:none;" d="M190 85C194.665 104.596 191 128.86 191 149L189 149C179.694 141.949 155.431 146 144 146L144 144L144 94L142 94L140 94L140 96L140 145L138 145C123.803 145 107.852 144.702 94 148L94 150L96 150C125.952 141.147 161.471 149.37 192 150L192 148L192 85L190 85z"/>
<path style="fill:#999da3; stroke:none;" d="M144 94L144 96L144 146L146 146C159.642 146 177.26 143.602 190 149L191 148L191 86C174.767 90.4741 161.073 94 144 94z"/>
<path style="fill:#e50505; stroke:none;" d="M89 153L90 154C108.08 153.224 125.818 150.569 144 151.015C160.646 151.422 177.358 153.989 194 154L193 153C183.036 148.78 168.689 150.123 158 149.996C135.528 149.729 110.837 146.186 89 153z"/>
<path style="fill:#7f0606; stroke:none;" d="M195 150L195 152L193 152L194 153L193 154L188 154L189 155C191.613 155.174 192.943 155.418 195 157L196 156C206.118 158.845 219.392 158.969 227.961 165.638C232.505 169.174 226.686 177.558 229.337 178.122C238.999 180.178 238.256 166.25 232.906 162.221C221.634 153.732 206.592 156.457 195 150z"/>
<path style="fill:#7f0404; stroke:none;" d="M91 188L90 187L91 185L90 184C79.3173 181.987 68.1707 180.568 58 176.535C54.9324 175.319 48.2471 172.547 49.8318 168.181C51.2515 164.27 56.5421 163.058 60 161.976C70.1389 158.804 81.0331 158.374 91 155C90.3502 153.7 90.8532 154 89 154L90 153L92 153L91 152L90 151C78.5739 151.491 48.2209 154.227 43.6073 167.005C41.3376 173.291 47.1663 177.695 52 180.295C61.1591 185.222 80.8394 190.794 91 188z"/>
<path style="fill:#000000; stroke:none;" d="M90 185C114.119 188.115 145.01 192.711 169 187L169 185L168 182L166 182L165 183L167 185L166 186L94 184L94 182C94 176.265 91.2996 160.955 95.6034 156.742C99.882 152.554 115.203 154.128 121 153.985C144.847 153.4 168.22 155.803 192 156L192 158L192 184L190 184C183.605 180.926 174.089 179.309 167 179L168 180C174.488 182.754 181.936 184.854 189 185L189 187C182.797 190.479 175.606 191.355 170 196L169 195L169 193L170 190L168 190C142.797 196 115.259 188.003 90 188L90 190L90 266C90 274.378 87.1111 289.441 91.179 296.907C95.1327 304.163 105.907 304.95 113 306.731C131.689 311.422 155.349 310.56 174 306.235C180.514 304.725 189.109 303.949 193.258 297.895C198.919 289.635 195 268.818 195 259L195 155L193 155C167.027 152.735 141.218 149.487 115 151.925C109.608 152.426 94.4727 150.913 91.0278 155.564C86.8863 161.156 90 178.119 90 185z"/>
<path style="fill:#3d4159; stroke:none;" d="M94 156L95 157C108.834 157 125.566 158.198 139 155L140 156L140 184L138 184L94 182L94 184C118.376 185.047 142.517 186 167 186L167 184L165 183L166 182L167 181L170 181L169 180L167 180L168 179L170 179L192 184L192 182L192 156L190 156C159.322 153.579 124.344 148.776 94 156z"/>
<path style="fill:#999da3; stroke:none;" d="M94 157L94 159L94 182L96 182C110.58 183.843 125.299 184 140 184L140 182C140 173.386 141.449 163.285 139 155C124.74 157.647 108.512 157 94 157M145 155L145 157L145 184L147 184L163 184L162 182C157.897 171.536 185.726 180.912 191 182L191 180L191 158L189 158C174.617 156.865 159.135 157.624 145 155z"/>
<path style="fill:#ffffff; stroke:none;" d="M90 184L90 182L90 156L88 156C77.8082 157.289 67.8077 159.185 58.0039 162.284C54.795 163.298 49.3378 164.983 48.9066 169.078C48.4517 173.398 54.827 175.761 58 176.91C68.1698 180.591 79.2977 182.64 90 184z"/>
<path style="fill:#bfbfbf; stroke:none;" d="M195 157L195 296L196 295L196 199C196 187.056 199.607 167.98 195 157z"/>
<path style="fill:#e80303; stroke:none;" d="M167 181L169 187C167.147 187 167.65 186.7 167 188C150.382 188 133.601 188.688 117 187.961C108.548 187.591 98.169 184.235 90 186L91 187C103.141 192.106 120.015 191 133 191C145.152 191 158.024 192.223 170 190L170 192L169 196L189 188L189 186L188 185L167 181z"/>
<path style="fill:#999da3; stroke:none;" d="M169 197L169 200L168 201L166 201L164 201L164 198L164 194L162 194L145 194L145 196L145 306L147 306C158.337 305.999 181.227 306.69 189.682 297.721C194.962 292.121 192 276.26 192 269L192 188C184.047 190.192 177.114 195.554 169 197z"/>
<path style="fill:#cacaca; stroke:none;" d="M85 189L86 190L89 190L89 192L89 296L90 295L90 189L88 189L85 189z"/>
<path style="fill:#515460; stroke:none;" d="M94 190L94 192C108.055 194.648 125.911 196.616 140 194L140 196L140 306L138 306L137 307L148 307L147 306L145 306L145 304L145 194L147 194L164 194L164 196C163.532 197.846 163.699 199.069 164 201L166 201L169 201L168 200L165 200L165 198L168 195L168 193L167 192L94 190z"/>
<path style="fill:#999da3; stroke:none;" d="M94 192L94 194L94 270C94 276.776 91.1534 292.164 95.6034 297.606C103.487 307.246 128.833 306 140 306L140 304L140 194L138 194C124.692 197.167 107.466 193.711 94 192z"/>
<path style="fill:#13137d; stroke:none;" d="M140 309L140 311L140 323L142 323L145 323L145 321L145 309L143 309L140 309z"/>
</svg>
