<?xml version="1.0" encoding="UTF-8" standalone="no"?>
				  <svg
				  xmlns:rdf="http://www.w3.org/1999/02/22-rdf-syntax-ns#"
				  xmlns:svg="http://www.w3.org/2000/svg"
				  xmlns="http://www.w3.org/2000/svg"
				  xmlns:xlink="http://www.w3.org/1999/xlink"
				  version="1.1"  width="500" height="333">
<path style="fill:#ffffff; stroke:none;" d="M0 0L0 2L0 333L2 333L500 333L500 331L500 0L498 0L0 0z"/>
<path style="fill:#07077d; stroke:none;" d="M197 57L198 58L200 58C204.252 53.7832 208.483 49.4589 214 47L214 49C210.975 59.2324 212.983 72.3473 213 83C213.007 87.3087 214.513 92.3933 212 96C216.388 114.431 212.961 137.106 212.71 156C212.213 193.336 212 230.634 212 268L214 268C216.825 261.269 214.917 251.267 215.004 244C215.186 228.704 216 213.366 216 198C216 147.591 218 97.313 218 47L220 47C222.677 51.627 227.627 55.0101 232 58L233 57L233 55C226.36 45.6653 221.196 33.6646 217 23C207.48 28.1778 202.541 47.795 197 57z"/>
<path style="fill:#0000fe; stroke:none;" d="M214 30L214 32C210.456 36.2768 208.13 41.883 206 47L207 48C213.845 43.6946 217.155 43.6946 224 48L225 47L217 30L214 30z"/>
<path style="fill:#000000; stroke:none;" d="M104 42L103 43L104 48L106 48C106.646 45.5422 106.646 44.4578 106 42L104 42z"/>
<path style="fill:#7f0303; stroke:none;" d="M213 136L213 134L213 131L211 131C188.312 131 165.177 128.893 143 123.986C138.46 122.982 122.718 119.606 123.631 112.989C124.621 105.816 139.501 103.977 145 102.79C167.524 97.9282 191.004 96 214 96L214 94L214 91L212 91C187.432 91.0027 160.714 93.1383 137 99.8596C130.052 101.829 112.571 106.143 118.18 116.96C122.252 124.812 134.326 126.581 142 128.475C165.544 134.285 189.564 131.649 213 136z"/>
<path style="fill:#7d0404; stroke:none;" d="M218 91L218 93L218 96L220 96C242.243 96.0024 265.272 98.5282 287 103.425C294.672 105.154 312.263 110.021 301 119L301 121L302 123L304 123C319.693 113.095 306.064 103.968 294 100.424C270.01 93.3779 242.925 91.0165 218 91z"/>
<path style="fill:#ffffff; stroke:none;" d="M213 131L213 129L213 106C212.999 103.383 213.75 98.8913 211.397 97.0278C207.235 93.7315 197.785 96.7511 193 96.9606C175.501 97.7269 158.138 99.5628 141 103.425C135.93 104.568 123.734 106.436 122.921 112.989C122.05 120.015 138.177 123.18 143 124.196C165.969 129.036 189.548 131 213 131z"/>
<path style="fill:#7d0303; stroke:none;" d="M237 122L237 124L242 129L241 130L217 131L217 133L217 135L219 135C227.019 135 235.089 135.469 243 134L243 136L239 142L240 143L242 143C249.005 138.013 258.593 132.905 267 131L267 129C258.476 125.173 246.292 123.366 237 122z"/>
<path style="fill:#ff0000; stroke:none;" d="M245 127L245 129L246 136L248 136L259 131L258 130C254.061 128.103 249.351 127.355 245 127z"/>
<path style="fill:#1b1b1b; stroke:none;" d="M216 157L216 159L215 268L213 268C210.302 258.873 212 247.497 212 238L210 238L209 264C201.576 264.324 194.516 267.433 187.015 266.945C176.629 266.27 166.429 262.215 156 262L156 260C145.164 250.204 147 231.253 147 218L149 218L157 222L158 221L158 219C170.386 221.555 183.312 225.895 196 226L196 229L197 230L199 230C202.368 229.198 205.545 229.01 209 229L209 227L198 221L197 222L197 224C184.31 222.361 171.796 217.551 159 217L159 215L160 214L147 214C151.294 206.589 153.26 198.33 158.079 191C171.001 171.346 189.816 163.133 212 159L212 161L212 208L213 207L213 157L211 157C135.536 157.625 121.048 266.503 186 295.855C195.472 300.136 205.626 302.116 216 301.996C225.717 301.884 235.195 299.425 244 295.396C310.717 264.864 291.125 157.05 216 157z"/>
<path style="fill:#b7b7b7; stroke:none;" d="M147 213L148 214L160 214L159 215L159 217C171.821 218.02 184.172 222.979 197 224L197 222L198 221C201.481 223.647 204.866 225.567 209 227L209 229L207 229L196 230L196 227L195 226C182.51 225.462 170.362 220.665 158 219L158 221L157 222C153.777 219.846 150.783 218.793 147 218L147 220C147 236.15 148.254 247.902 156 262L158 262C167.66 263.255 177.257 266.634 187.015 266.981C194.591 267.252 201.551 264.608 209 264L209 262C209.196 252.509 211.283 243.243 211.946 233.961C213.711 209.247 212 183.783 212 159L210 159C189.143 164.023 171.503 170.261 158.746 189C153.557 196.623 151.504 205.226 147 213z"/>
<path style="fill:#868686; stroke:none;" d="M220 163L220 166C216.895 173.4 219 184.993 219 193L219 252L221 252C234.292 247.581 240.527 225.758 241.86 213C242.376 208.054 242.43 200.036 238 197L240 196C239.469 184.375 232.079 166.747 220 163z"/>
<path style="fill:#1e1e1e; stroke:none;" d="M179 205L179 207L177 218L179 218C181.053 215.013 181.333 211.538 182 208L184 208L187 209L187 207C184.44 205.058 182.192 205.035 179 205z"/>
</svg>
